<svg width="148" height="32" viewBox="0 0 148 32" fill="none" xmlns="http://www.w3.org/2000/svg">
<path d="M58.1469 28.1111V9.36841H53.8555C50.6689 9.5543 50.2175 11.8434 50.1537 12.486V22.7895C47.8062 25.3653 45.3791 26.6612 42.8563 26.6612C40.6098 26.6612 39.4785 25.4556 39.4785 23.0231V9.36841H35.1394C32.3404 9.53305 31.6553 11.3229 31.4854 12.1886V24.4678C31.4854 26.555 32.2448 28.2014 33.7797 29.407C35.3146 30.618 37.3966 31.2181 40.0468 31.2181C44.1894 31.2181 47.5566 29.7045 50.1537 26.6772V30.7401H54.222C57.074 30.7029 57.9079 29.0618 58.1469 28.1111Z" fill="white"/>
<path d="M80.7249 8.89072C76.3326 8.89072 73.1195 10.4097 71.08 13.4529V0H67.1817C63.0815 0.0106221 63.0815 3.30348 63.0815 3.30348V30.7351H67.989C67.989 30.7351 69.407 30.7298 70.0603 30.0022C70.7082 29.2746 70.8357 28.3504 70.8357 28.3504L71.08 28.5416C73.4062 30.3155 76.2211 31.2131 79.514 31.2131C83.3485 31.2131 86.413 30.1456 88.6968 28.0158C90.9965 25.8808 92.1384 23.0341 92.1384 19.465C92.1384 16.1722 91.1186 13.5857 89.0898 11.7003C87.0504 9.82015 84.2674 8.8854 80.7196 8.8854M81.8668 25.4134C80.709 26.7731 79.1581 27.4476 77.2143 27.4476C75.0474 27.4476 72.9973 26.6721 71.0747 25.116V16.7352C73.2257 14.5417 75.4722 13.4476 77.8091 13.4476C81.6756 13.4476 83.6088 15.6198 83.6088 19.9643C83.6088 22.2374 83.0299 24.0538 81.8668 25.4187" fill="white"/>
<path d="M96.0813 3.19726C96.1185 2.64491 96.5062 0.00531106 100.181 0H104.085V30.7351H96.0813V3.19726Z" fill="white"/>
<path d="M118.38 1.10938H110.381V5.91057H118.38V1.10938Z" fill="white"/>
<path d="M118.38 27.4313V9.36841H110.381V30.7348H114.349C118.369 30.6764 118.374 27.4313 118.374 27.4313" fill="white"/>
<path d="M140.018 27.2938C137.404 27.2938 135.307 26.6246 133.745 25.2969C132.173 23.9638 131.392 22.1952 131.392 19.9699C131.392 17.7445 132.115 16.0715 133.57 14.7544C135.014 13.4585 136.932 12.7999 139.311 12.7999C141.26 12.7999 143.863 13.177 147.129 13.9206V9.7567C143.98 9.17248 141.202 8.88037 138.791 8.88037C133.82 8.88037 129.916 9.86292 127.09 11.8333C124.27 13.809 122.863 16.5336 122.863 20.023C122.863 23.5123 124.238 26.2051 126.974 28.202C129.725 30.2043 133.458 31.2081 138.191 31.2081C141.016 31.2081 144.086 30.8363 147.395 30.0928V26.1626C144.867 26.9167 142.418 27.2885 140.028 27.2885" fill="white"/>
<path d="M25.1677 3.68002C23.0911 2.50096 19.6124 1.91675 14.7634 1.91675H4.34307C0.848393 2.24072 0.837771 5.19367 0.837771 5.19367L0.827148 5.2043V30.7346H9.00087V19.4486H12.4531C17.4508 19.4486 21.3385 18.5829 24.1161 16.8515C26.8938 15.1147 28.2853 12.6929 28.2853 9.5753C28.2853 6.81886 27.2444 4.85376 25.1677 3.68002ZM17.3021 14.0844C15.6663 15.0457 13.4356 15.529 10.6154 15.529H9.00087V5.84693H12.2194C17.2436 5.84693 19.7505 7.28623 19.7505 10.1754C19.7505 11.8219 18.9379 13.1284 17.2967 14.0897" fill="white"/>
</svg>
